<svg xmlns="http://www.w3.org/2000/svg" xmlns:xlink="http://www.w3.org/1999/xlink" viewBox="0 0 100 52.96"><defs><style>.cls-1{fill:#372992;}.cls-2{fill:#1c6ebd;}.cls-3{fill:url(#linear-gradient);}.cls-4{fill:url(#linear-gradient-2);}.cls-5{fill:url(#linear-gradient-3);}.cls-6{fill:url(#linear-gradient-4);}.cls-7{fill:url(#linear-gradient-5);}.cls-8{fill:url(#linear-gradient-6);}.cls-9{fill:url(#linear-gradient-7);}.cls-10{fill:url(#linear-gradient-8);}.cls-11{fill:url(#linear-gradient-9);}.cls-12{fill:url(#linear-gradient-10);}.cls-13{fill:url(#linear-gradient-11);}.cls-14{fill:#fff;}.cls-15{fill:#e8e7e5;}.cls-16{fill:url(#linear-gradient-12);}.cls-17{fill:url(#linear-gradient-13);}.cls-18{fill:url(#linear-gradient-14);}.cls-19{fill:url(#linear-gradient-15);}.cls-20{fill:url(#linear-gradient-16);}.cls-21{fill:url(#linear-gradient-17);}.cls-22{fill:url(#linear-gradient-18);}.cls-23{fill:url(#linear-gradient-19);}.cls-24{fill:#00b3ee;}.cls-25{fill:#696c8f;}</style><linearGradient id="linear-gradient" x1="10.73" y1="10.52" x2="58.51" y2="38.1" gradientUnits="userSpaceOnUse"><stop offset="0.3" stop-color="#21cbef"/><stop offset="1" stop-color="#1c6ebd"/></linearGradient><linearGradient id="linear-gradient-2" x1="41.49" y1="38.1" x2="89.27" y2="10.52" gradientUnits="userSpaceOnUse"><stop offset="0" stop-color="#1c6ebd"/><stop offset="0.7" stop-color="#21cbef"/></linearGradient><linearGradient id="linear-gradient-3" x1="33.56" y1="33.09" x2="34.85" y2="33.09" gradientUnits="userSpaceOnUse"><stop offset="0" stop-color="#21cbef"/><stop offset="0.7" stop-color="#21cbef"/></linearGradient><linearGradient id="linear-gradient-4" x1="40.86" y1="34.24" x2="42.15" y2="34.24" xlink:href="#linear-gradient-3"/><linearGradient id="linear-gradient-5" x1="37.2" y1="33.69" x2="38.49" y2="33.69" xlink:href="#linear-gradient-3"/><linearGradient id="linear-gradient-6" x1="44.69" y1="34.22" x2="45.99" y2="34.22" xlink:href="#linear-gradient-3"/><linearGradient id="linear-gradient-7" x1="65.3" y1="33.24" x2="66.59" y2="33.24" xlink:href="#linear-gradient-3"/><linearGradient id="linear-gradient-8" x1="61.63" y1="33.68" x2="62.93" y2="33.68" xlink:href="#linear-gradient-3"/><linearGradient id="linear-gradient-9" x1="57.97" y1="34.23" x2="59.26" y2="34.23" xlink:href="#linear-gradient-3"/><linearGradient id="linear-gradient-10" x1="54.14" y1="34.2" x2="55.44" y2="34.2" xlink:href="#linear-gradient-3"/><linearGradient id="linear-gradient-11" x1="27.6" y1="42.67" x2="72.51" y2="42.67" xlink:href="#linear-gradient-3"/><linearGradient id="linear-gradient-12" x1="47.1" y1="47.74" x2="53.03" y2="47.74" xlink:href="#linear-gradient-3"/><linearGradient id="linear-gradient-13" x1="46.92" y1="12.53" x2="53.26" y2="12.53" xlink:href="#linear-gradient-3"/><linearGradient id="linear-gradient-14" x1="42.16" y1="30.57" x2="58.03" y2="30.57" xlink:href="#linear-gradient-3"/><linearGradient id="linear-gradient-15" x1="49.43" y1="2.31" x2="50.76" y2="2.31" xlink:href="#linear-gradient-3"/><linearGradient id="linear-gradient-16" x1="49.28" y1="5.37" x2="50.9" y2="5.37" xlink:href="#linear-gradient-3"/><linearGradient id="linear-gradient-17" x1="45.4" y1="23.45" x2="54.8" y2="23.45" xlink:href="#linear-gradient-3"/><linearGradient id="linear-gradient-18" x1="47.01" y1="24.94" x2="53.18" y2="24.94" xlink:href="#linear-gradient-3"/><linearGradient id="linear-gradient-19" x1="47.17" y1="23.52" x2="53.01" y2="23.52" xlink:href="#linear-gradient-3"/></defs><g id="Layer_2" data-name="Layer 2"><g id="new_logo" data-name="new logo"><path class="cls-1" d="M0,14.78s14.34-7,36.33,2.69l13.3,34.75S45.24,46.72,15,47.56C15,47.56,9.7,23.58,0,14.78Z"/><path class="cls-2" d="M7.38,6.73s15.33-4.37,35.31,9l7.06,36.54S46.38,46,16.43,41.61C16.43,41.61,15.4,17.08,7.38,6.73Z"/><path class="cls-3" d="M16.78,0S32.64-1.59,50,15V52.85S48.37,45.54,19.64,36C19.64,36,22.88,11.64,16.78,0Z"/><path class="cls-1" d="M100,14.78s-14.34-7-36.33,2.69L50.37,52.22s4.39-5.5,34.66-4.66C85,47.56,90.3,23.58,100,14.78Z"/><path class="cls-2" d="M92.62,6.73s-15.33-4.37-35.31,9L50.25,52.22S53.62,46,83.57,41.61C83.57,41.61,84.6,17.08,92.62,6.73Z"/><path class="cls-4" d="M83.22,0S67.36-1.59,50,15V52.85S51.63,45.54,80.36,36C80.36,36,77.12,11.64,83.22,0Z"/><rect class="cls-2" x="33.31" y="38.25" width="33.39" height="6.86" rx="0.74"/><path class="cls-2" d="M57.84,32H42.21a11.79,11.79,0,0,0-6.13,10.06c0,6.71,6.22,10.58,13.92,10.58s14-3.87,14-10.58A11.79,11.79,0,0,0,57.84,32Z"/><path class="cls-5" d="M34.85,34.67a.77.77,0,0,1-.86.24,2.22,2.22,0,0,1-.43-.23c.17-.2.37-.39.21-.7,0-.06,0-.19.08-.26a.32.32,0,0,0,0-.36.76.76,0,0,1-.06-.36c0-.5.1-1,.14-1.48,0-.16.06-.3.25-.29s.22.14.23.29l.15,1.54a.43.43,0,0,1,0,.16.44.44,0,0,0,.07.6.15.15,0,0,1,0,.13c-.19.3,0,.5.16.72Z"/><path class="cls-6" d="M42.15,35.81a.79.79,0,0,1-.86.25,2.22,2.22,0,0,1-.43-.23c.17-.21.37-.39.21-.71,0-.06,0-.18.08-.26a.32.32,0,0,0,.05-.36.7.7,0,0,1-.06-.35l.14-1.48c0-.16.06-.3.25-.29s.22.14.23.29l.15,1.54a.43.43,0,0,1,0,.16A.44.44,0,0,0,42,35a.15.15,0,0,1,0,.13C41.8,35.39,42,35.6,42.15,35.81Z"/><path class="cls-1" d="M35,42.19H36.1c-.06-.8-.13-1.61-.19-2.42l-.09-1-.56-.5a.37.37,0,0,1-.12-.49.83.83,0,0,0,0-.47c-.08-.35-.18-.7-.29-1a.67.67,0,0,1,.05-.6,2.14,2.14,0,0,0,.29-1.37l-.07,0-.29.33a.82.82,0,0,1-.9.25,2.76,2.76,0,0,1-.44-.25.29.29,0,0,0-.3-.29h0a1.52,1.52,0,0,0,.17,1,1.41,1.41,0,0,1,.07,1.25c-.1.22-.12.46-.21.69a.64.64,0,0,0,0,.57.26.26,0,0,1,0,.37l0,0a1.47,1.47,0,0,0-.66,1.25c0,.91-.13,1.82-.2,2.73H35Z"/><path class="cls-7" d="M38.49,35.27a.79.79,0,0,1-.86.24,1.64,1.64,0,0,1-.43-.24c.17-.2.37-.38.21-.7,0-.06,0-.19.08-.26a.32.32,0,0,0,0-.36.7.7,0,0,1-.06-.35c0-.5.09-1,.14-1.48,0-.16.06-.3.25-.29s.22.14.23.29l.15,1.54a.43.43,0,0,1,0,.16.44.44,0,0,0,.07.6.15.15,0,0,1,0,.13c-.19.3,0,.5.16.72Z"/><path class="cls-1" d="M38.61,42.63H39.7c-.06-.78-.13-1.56-.19-2.33l-.09-1-.53-.48a.34.34,0,0,1-.12-.47.9.9,0,0,0,0-.46c-.08-.34-.17-.67-.28-1a.65.65,0,0,1,.05-.59A2.1,2.1,0,0,0,38.83,35l-.07,0-.27.32a.78.78,0,0,1-.87.24,2.55,2.55,0,0,1-.43-.23A.28.28,0,0,0,36.9,35h0a1.5,1.5,0,0,0,.17,1,1.39,1.39,0,0,1,.06,1.21c-.09.21-.12.45-.19.67a.62.62,0,0,0,0,.55.24.24,0,0,1,0,.35l0,0A1.4,1.4,0,0,0,36.22,40c0,.87-.12,1.75-.19,2.63h2.58Z"/><path class="cls-1" d="M42.27,43.17h1.09c-.06-.77-.12-1.55-.19-2.33l-.09-1-.53-.48a.34.34,0,0,1-.12-.47.8.8,0,0,0,0-.46,8.73,8.73,0,0,0-.28-1,.63.63,0,0,1,0-.58,2,2,0,0,0,.27-1.32l-.06,0-.28.31a.79.79,0,0,1-.86.25,2.22,2.22,0,0,1-.43-.23.28.28,0,0,0-.29-.28h0a1.49,1.49,0,0,0,.16,1,1.39,1.39,0,0,1,.07,1.21c-.1.21-.12.45-.2.67a.66.66,0,0,0,0,.55.25.25,0,0,1,0,.35l0,0a1.39,1.39,0,0,0-.64,1.21c0,.87-.13,1.75-.19,2.63h2.57Z"/><path class="cls-8" d="M46,35.79a.81.81,0,0,1-.88.25,1.76,1.76,0,0,1-.42-.24c.17-.2.37-.38.21-.7,0-.06,0-.18.08-.26a.32.32,0,0,0,.05-.36.7.7,0,0,1-.06-.35c0-.5.09-1,.14-1.48,0-.16.06-.3.25-.29s.22.14.23.29l.15,1.54a.43.43,0,0,1,0,.16.44.44,0,0,0,.07.6.15.15,0,0,1,0,.13c-.19.29,0,.5.17.71Z"/><path class="cls-1" d="M46.11,43.15H47.2c-.07-.77-.13-1.55-.19-2.33l-.09-1-.53-.48a.34.34,0,0,1-.13-.47.9.9,0,0,0,0-.46c-.08-.33-.17-.67-.28-1a.65.65,0,0,1,.05-.59,2.1,2.1,0,0,0,.27-1.32l-.07-.05L46,35.8a.83.83,0,0,1-.88.25,2.86,2.86,0,0,1-.42-.24.28.28,0,0,0-.29-.28h0a1.46,1.46,0,0,0,.16,1,1.34,1.34,0,0,1,.06,1.2c-.09.21-.11.45-.19.67a.59.59,0,0,0,0,.55.25.25,0,0,1-.05.35l0,0a1.43,1.43,0,0,0-.65,1.21c0,.87-.12,1.76-.18,2.63h2.58Z"/><path class="cls-9" d="M65.3,34.82a.81.81,0,0,0,.86.25,3,3,0,0,0,.43-.24c-.17-.2-.37-.39-.21-.7,0-.06,0-.19-.08-.26a.32.32,0,0,1,0-.36.76.76,0,0,0,.06-.36c0-.49-.09-1-.14-1.48,0-.16-.06-.29-.25-.29s-.22.14-.23.29l-.15,1.55c0,.05,0,.12,0,.16a.45.45,0,0,1-.07.6.13.13,0,0,0,0,.12c.19.3,0,.5-.16.72Z"/><path class="cls-1" d="M65.18,42.18H64.09l.19-2.33.09-1,.53-.48a.35.35,0,0,0,.12-.47.86.86,0,0,1,0-.45,8.22,8.22,0,0,1,.29-1,.68.68,0,0,0-.06-.59A2.1,2.1,0,0,1,65,34.55l.07,0,.28.32a.79.79,0,0,0,.86.25,3,3,0,0,0,.43-.24.28.28,0,0,1,.29-.28h0a1.51,1.51,0,0,1-.16,1,1.36,1.36,0,0,0-.07,1.21c.1.21.12.45.2.66a.68.68,0,0,1,0,.56.25.25,0,0,0,0,.35l0,0a1.41,1.41,0,0,1,.64,1.21c0,.88.13,1.76.19,2.63H65.18Z"/><path class="cls-10" d="M61.63,35.26a.82.82,0,0,0,.87.25,3.62,3.62,0,0,0,.43-.24c-.18-.2-.38-.39-.22-.7,0-.06,0-.19-.07-.26a.32.32,0,0,1,0-.36.9.9,0,0,0,0-.36c0-.49-.09-1-.13-1.48,0-.16-.06-.3-.25-.29S62,32,62,32.11l-.14,1.54a.29.29,0,0,0,0,.16.44.44,0,0,1-.07.6.15.15,0,0,0,0,.13c.19.29,0,.5-.17.72Z"/><path class="cls-1" d="M61.51,42.62H60.43c.06-.78.12-1.56.19-2.33l.08-1,.54-.48a.34.34,0,0,0,.11-.47.89.89,0,0,1,0-.46c.08-.33.17-.67.28-1a.65.65,0,0,0,0-.59A2.1,2.1,0,0,1,61.29,35l.07-.05.27.32a.82.82,0,0,0,.87.25,3.62,3.62,0,0,0,.43-.24.28.28,0,0,1,.28-.28h0a1.53,1.53,0,0,1-.17,1,1.37,1.37,0,0,0-.06,1.2c.09.21.12.45.19.67a.62.62,0,0,1,0,.55.24.24,0,0,0,0,.35l0,0A1.38,1.38,0,0,1,63.9,40c0,.87.13,1.76.19,2.63H61.51Z"/><path class="cls-11" d="M58,35.81a.8.8,0,0,0,.87.24,1.76,1.76,0,0,0,.42-.24c-.17-.2-.37-.38-.21-.7,0-.06,0-.18-.08-.26a.34.34,0,0,1,0-.36.7.7,0,0,0,.06-.35c0-.5-.09-1-.14-1.48,0-.16-.06-.3-.25-.29s-.22.14-.23.29l-.15,1.54a.29.29,0,0,0,0,.16.44.44,0,0,1-.07.6.12.12,0,0,0,0,.13c.19.29,0,.5-.17.72Z"/><path class="cls-1" d="M57.85,43.17H56.77c.06-.78.12-1.56.19-2.34l.08-1,.54-.48a.35.35,0,0,0,.12-.47.89.89,0,0,1,0-.46,8.62,8.62,0,0,1,.29-1,.68.68,0,0,0-.06-.59,2.1,2.1,0,0,1-.27-1.32l.07,0,.28.32a.8.8,0,0,0,.87.24,1.91,1.91,0,0,0,.41-.24.3.3,0,0,1,.29-.28h0a1.45,1.45,0,0,1-.16,1,1.36,1.36,0,0,0-.07,1.21c.1.21.12.45.2.67a.6.6,0,0,1,0,.55.25.25,0,0,0,0,.35l0,0a1.43,1.43,0,0,1,.65,1.22c0,.87.12,1.75.18,2.63H57.85Z"/><path class="cls-12" d="M54.14,35.78A.8.8,0,0,0,55,36a3.62,3.62,0,0,0,.43-.24c-.18-.2-.38-.39-.22-.7,0-.06,0-.19-.07-.26a.32.32,0,0,1,0-.36.75.75,0,0,0,0-.36c0-.49-.09-1-.13-1.48,0-.16-.06-.3-.25-.29s-.22.14-.24.29l-.14,1.55a.38.38,0,0,0,0,.15.45.45,0,0,1-.07.61.13.13,0,0,0,0,.12c.18.3,0,.51-.17.72Z"/><path class="cls-1" d="M54,43.14H52.94l.18-2.33.09-1,.54-.48a.35.35,0,0,0,.12-.47.8.8,0,0,1,0-.46,8.73,8.73,0,0,1,.28-1,.63.63,0,0,0-.05-.58,2.12,2.12,0,0,1-.28-1.32l.07-.05.28.32A.81.81,0,0,0,55,36a3.62,3.62,0,0,0,.43-.24.28.28,0,0,1,.29-.28h0a1.52,1.52,0,0,1-.17,1,1.39,1.39,0,0,0-.06,1.21,4.58,4.58,0,0,1,.19.66.62.62,0,0,1,0,.55.24.24,0,0,0,.05.35l0,0a1.38,1.38,0,0,1,.65,1.21c0,.87.13,1.76.19,2.63H54Z"/><rect class="cls-1" x="27.6" y="42.23" width="44.91" height="9.22" rx="1"/><path class="cls-13" d="M28.48,42.23H71.64a.87.87,0,0,1,.87.87H27.6a.87.87,0,0,1,.88-.87Z"/><path class="cls-14" d="M27.6,47.74H72.51v3.74H27.6Z"/><path class="cls-15" d="M44.77,42.23H55.35a.32.32,0,0,1,.32.32v8.92H44.44V42.55a.32.32,0,0,1,.33-.32Z"/><path class="cls-14" d="M46.19,43.23h7.73a.5.5,0,0,1,.5.5v7.74H45.69V43.73A.5.5,0,0,1,46.19,43.23Z"/><path class="cls-16" d="M53,51.48H47.1V46.1c0-1.16,1.33-2.1,3-2.1h0c1.64,0,3,.94,3,2.1Z"/><path class="cls-2" d="M50.06,44.72h0a2.19,2.19,0,0,1,2.18,2.18v4.58H47.87V46.9A2.19,2.19,0,0,1,50.06,44.72Z"/><path class="cls-2" d="M53.56,26.19a2.49,2.49,0,0,1-.58.35c-.66.17-1.33.33-2,.44a7.48,7.48,0,0,1-3.22-.25,7.07,7.07,0,0,1-1-.4c-.06,0-.09-.09-.14-.14l.38-.88h6.17Z"/><path class="cls-17" d="M46.92,18.44a9.77,9.77,0,0,1,.73-3.3c.33-.84.68-1.66,1-2.5a5.13,5.13,0,0,0,.25-2.74l-.39-2.47c0-.26,0-.54,0-.82.35,0,.42.24.55.42a.65.65,0,0,0,.15.18,1.87,1.87,0,0,0,1.87,0A.87.87,0,0,0,51.16,7c.13-.18.2-.45.59-.41l-.2,1.46L51.28,9.9A5.74,5.74,0,0,0,51.65,13c.48,1.21,1,2.43,1.35,3.67a10.23,10.23,0,0,1,.26,1.76Z"/><path class="cls-18" d="M58,32H42.2a2.44,2.44,0,0,1,1.27-2.76c.2-.11.36-.17.56,0,0,0,.15,0,.23,0s.07.18.14.22a2.38,2.38,0,0,1,1,1.44,2.21,2.21,0,0,1,1-1.52.71.71,0,0,1,1.07,0,2.48,2.48,0,0,1,1,1.5A2.49,2.49,0,0,1,50,29.17a.26.26,0,0,1,.21,0,2.52,2.52,0,0,1,1.48,1.74,2.52,2.52,0,0,1,1.07-1.54.68.68,0,0,1,1,0,2.36,2.36,0,0,1,1.09,1.51,2.33,2.33,0,0,1,.88-1.3,1.83,1.83,0,0,0,.24-.31c.05,0,.13,0,.17,0,.28-.22.5-.07.75.07A2.45,2.45,0,0,1,58,32Z"/><path class="cls-2" d="M55.93,29.26a1.13,1.13,0,0,1-.24.3,2.4,2.4,0,0,0-.87,1.3,2.41,2.41,0,0,0-1.09-1.5.67.67,0,0,0-1,0,2.45,2.45,0,0,0-1.07,1.54,2.51,2.51,0,0,0-1.49-1.74.26.26,0,0,0-.21,0,2.48,2.48,0,0,0-1.47,1.74,2.43,2.43,0,0,0-1-1.49.71.71,0,0,0-1.07,0,2.22,2.22,0,0,0-1,1.53,2.38,2.38,0,0,0-1-1.44c-.07,0-.09-.15-.14-.23l.33-1.51.81,0H55.6l.33,1.52Z"/><path class="cls-19" d="M49.46,4.52a1.84,1.84,0,0,1,0-.33L49.79.47c0-.2.07-.38.32-.37s.27.19.29.37l.36,3.72a1.84,1.84,0,0,1,0,.33Z"/><path class="cls-2" d="M51.16,7a.62.62,0,0,1-.11.17,1.87,1.87,0,0,1-1.87,0L49,7c0-.08.08-.16.13-.24.25-.35.42-.69.08-1.08,0,0,0-.07,0-.1a2,2,0,0,0,.35.06h1.26C50.55,6.22,50.93,6.61,51.16,7Z"/><path class="cls-20" d="M50.9,5.68H49.64a2.29,2.29,0,0,1-.36-.07l.38-.55h.87Z"/><path class="cls-2" d="M50.53,5.06h-.86l-.21-.55h1.27Z"/><path class="cls-21" d="M47,22.47l-.74-3.3h7.63l-.74,3.3Zm7.78,5.26H45.4V25.49l.93.62a.73.73,0,0,0,.3.07c0,.05.08.13.13.15a7.72,7.72,0,0,0,1,.4A7.63,7.63,0,0,0,51,27a19.89,19.89,0,0,0,2-.45,2.19,2.19,0,0,0,.58-.35.86.86,0,0,0,.27-.05c.31-.19.61-.41,1-.65Z"/><path class="cls-2" d="M53.33,19.17H46.86l0-.31v-.23l0-.19h6.35l0,.19v.17Z"/><path class="cls-22" d="M53.18,25.31H47l.7-.75h4.77Z"/><path class="cls-2" d="M47,22.47h6.15l-.68.68a1.35,1.35,0,0,1-.29.05H48a1.35,1.35,0,0,1-.29-.05Zm5.46,2.1H47.71l-.54-.68H53s0,0,0,.06Z"/><path class="cls-23" d="M53,23.88H47.17l.39-.49a2,2,0,0,0,.14-.25,1.36,1.36,0,0,0,.29.06H52.2a1.36,1.36,0,0,0,.29-.06l.33.47.19.26Z"/><path class="cls-24" d="M52.61,37.41l1.48.84.29-1.62a.08.08,0,0,0-.07-.1h-.05l-.68.34Z"/><path class="cls-24" d="M50.81,35.77l3.26,1.86,0,.62-3.77-2.12Zm-3.37,1.64L46,38.25l-.29-1.62a.08.08,0,0,1,.07-.1h0l.68.34Z"/><path class="cls-24" d="M49.24,35.77,46,37.63l0,.62,3.77-2.12Zm-.18-.48-1.48.84-.29-1.62a.08.08,0,0,1,.07-.1h0l.68.34Z"/><path class="cls-24" d="M49.68,34.24,47.6,35.51l0,.62L50,34.65Zm1.26,1,1.49.84.29-1.62a.08.08,0,0,0-.07-.1h0l-.68.34Z"/><path class="cls-24" d="M50.33,34.24l2.08,1.27,0,.62L50,34.65Z"/><path class="cls-2" d="M56.89,41.09H43.17L46.93,39h6.21Z"/><path class="cls-1" d="M53.14,39H46.93l-1-.72h8.1Zm-1.28-2.12H48.2l-.61-.72h4.82l-.55.72Z"/><path class="cls-2" d="M54.08,38.25H46l2.22-1.4h3.66l2.22,1.4ZM50,34.65l2.41,1.48H47.59"/><path class="cls-24" d="M44.46,40.36l-1.29.73-.29-1.62a.08.08,0,0,1,.07-.1h0c.59,0,.72.13,1.08.59Z"/><path class="cls-24" d="M46.45,38.61l-3.26,1.86,0,.62L46.94,39Zm9.12,1.75,1.29.73.29-1.62a.08.08,0,0,0-.07-.1h0c-.59,0-.72.13-1.08.59Z"/><path class="cls-24" d="M53.58,38.61l3.26,1.86,0,.62L53.09,39Zm-4.24-4,1.33,0V34a.52.52,0,0,1-.17-.77L50.4,31s-.35-1.06-.72,0l-.13,2.27s.43.33-.2.81Z"/><path class="cls-1" d="M55.65,42.28H44.42l-1.25-1.19H56.89Z"/><path class="cls-2" d="M64.17,52.57v.36h.08a2.81,2.81,0,0,0,.65-.07v-.29Z"/><path class="cls-25" d="M26.82,51.48H73.18a.74.74,0,0,1,.74.74h0a.74.74,0,0,1-.74.74H26.82a.74.74,0,0,1-.74-.74h0A.74.74,0,0,1,26.82,51.48Z"/></g></g></svg>